<?xml version="1.0" encoding="UTF-8"?>
<svg version="1.1" xmlns="http://www.w3.org/2000/svg" width="100" height="109">
<path d="M0 0 C0.598125 0.20625 1.19625 0.4125 1.8125 0.625 C1.049375 1.016875 0.28625 1.40875 -0.5 1.8125 C-3.57556749 3.88671994 -4.59622205 5.29441825 -6.1875 8.625 C-6.54818502 11.97792008 -6.54818502 11.97792008 -6.375 15.4375 C-6.34792969 16.59894531 -6.32085937 17.76039062 -6.29296875 18.95703125 C-6.24076172 20.27767578 -6.24076172 20.27767578 -6.1875 21.625 C-5.135625 21.74875 -4.08375 21.8725 -3 22 C0.27208771 22.53640782 2.81786076 23.26380035 5.8125 24.625 C5.8125 23.965 5.8125 23.305 5.8125 22.625 C7.8125 22.625 7.8125 22.625 9.4375 24.125 C9.89125 24.62 10.345 25.115 10.8125 25.625 C10.8125 24.965 10.8125 24.305 10.8125 23.625 C11.4725 23.625 12.1325 23.625 12.8125 23.625 C13.3075 24.615 13.3075 24.615 13.8125 25.625 C15.97061388 24.67770463 15.97061388 24.67770463 17.8125 22.625 C17.8125 23.285 17.8125 23.945 17.8125 24.625 C19.2975 25.12 19.2975 25.12 20.8125 25.625 C20.8125 26.285 20.8125 26.945 20.8125 27.625 C19.3275 28.12 19.3275 28.12 17.8125 28.625 C18.38871094 28.75390625 18.96492188 28.8828125 19.55859375 29.015625 C24.41559171 30.32878216 28.68604917 32.18173487 31.8125 36.1875 C32.8125 38.625 32.8125 38.625 32.8125 41.625 C33.4725 41.625 34.1325 41.625 34.8125 41.625 C35.00585938 42.28886719 35.19921875 42.95273437 35.3984375 43.63671875 C35.65882812 44.51972656 35.91921875 45.40273438 36.1875 46.3125 C36.45691406 47.22773437 36.72632812 48.14296875 37.00390625 49.0859375 C37.78165528 51.7154371 37.78165528 51.7154371 39.125 54.4375 C40.07796617 57.4696651 39.0433605 58.70980408 37.8125 61.625 C37.33709616 64.94771502 37.05944619 68.27822923 36.8125 71.625 C37.4725 71.625 38.1325 71.625 38.8125 71.625 C38.4825 72.57375 38.1525 73.5225 37.8125 74.5 C36.53922603 78.28272431 36.53922603 78.28272431 37.90625 81.7890625 C38.3703125 82.60117188 38.834375 83.41328125 39.3125 84.25 C39.7765625 85.06726563 40.240625 85.88453125 40.71875 86.7265625 C41.0796875 87.35304688 41.440625 87.97953125 41.8125 88.625 C38.375 87.8125 38.375 87.8125 34.8125 86.625 C34.4825 85.635 34.1525 84.645 33.8125 83.625 C30.94525314 84.19844937 29.9510485 84.4864515 27.8125 86.625 C28.15773398 92.50510513 28.15773398 92.50510513 30.8125 97.625 C30.3175 99.11 30.3175 99.11 29.8125 100.625 C23.39611775 95.71032423 23.39611775 95.71032423 22.8125 91.625 C22.1525 91.295 21.4925 90.965 20.8125 90.625 C21.039375 91.676875 21.26625 92.72875 21.5 93.8125 C21.8125 97.625 21.8125 97.625 20.875 100.3125 C15.79712846 106.00587112 8.20369912 107.90751842 0.8125 108.625 C-7.29861111 108.51388889 -7.29861111 108.51388889 -10.1875 105.625 C-10.1875 104.635 -10.1875 103.645 -10.1875 102.625 C-7.7125 102.13 -7.7125 102.13 -5.1875 101.625 C-5.826875 101.521875 -6.46625 101.41875 -7.125 101.3125 C-7.805625 101.085625 -8.48625 100.85875 -9.1875 100.625 C-9.5175 99.635 -9.8475 98.645 -10.1875 97.625 C-12.69197516 96.40630071 -12.69197516 96.40630071 -15.1875 95.625 C-15.02378906 96.18703125 -14.86007813 96.7490625 -14.69140625 97.328125 C-14.15885003 99.75559056 -14.08851319 101.89389681 -14.125 104.375 C-14.13402344 105.17421875 -14.14304688 105.9734375 -14.15234375 106.796875 C-14.16394531 107.40015625 -14.17554688 108.0034375 -14.1875 108.625 C-16.88640283 104.57664576 -17.73995457 100.32844681 -18.9921875 95.65625 C-20.30937654 92.31592747 -20.99394366 91.20247342 -24.1875 89.625 C-32.24389426 88.5508141 -39.34304899 89.11694927 -46 93.9375 C-47.67850249 96.32274038 -48.38334897 98.84140028 -49.1875 101.625 C-49.5175 101.625 -49.8475 101.625 -50.1875 101.625 C-50.61343201 97.3656799 -50.47548126 95.12416751 -48.3125 91.375 C-43.99597615 86.77562701 -37.61906357 85.75077053 -31.5625 85.4375 C-30.386875 85.5303125 -30.386875 85.5303125 -29.1875 85.625 C-29.80625 84.5525 -30.425 83.48 -31.0625 82.375 C-32.5198679 79.82719016 -33.91674491 77.27240645 -35.1875 74.625 C-35.8475 75.615 -36.5075 76.605 -37.1875 77.625 C-39.1875 75.625 -39.1875 75.625 -39.3125 73 C-39.27125 72.21625 -39.23 71.4325 -39.1875 70.625 C-37.7025 70.13 -37.7025 70.13 -36.1875 69.625 C-36.8475 65.665 -37.5075 61.705 -38.1875 57.625 C-38.8475 57.625 -39.5075 57.625 -40.1875 57.625 C-39.8125 55.1875 -39.8125 55.1875 -39.1875 52.625 C-38.1975 52.13 -38.1975 52.13 -37.1875 51.625 C-37.1875 50.965 -37.1875 50.305 -37.1875 49.625 C-36.5275 49.625 -35.8675 49.625 -35.1875 49.625 C-35.125625 48.635 -35.125625 48.635 -35.0625 47.625 C-33.79335067 43.27363087 -31.28527385 39.91139708 -28.1875 36.625 C-26.8595307 35.94771147 -25.5269795 35.27922999 -24.1875 34.625 C-23.89875 33.861875 -23.61 33.09875 -23.3125 32.3125 C-21.50012025 27.98292615 -17.97529599 25.72922693 -14.0625 23.3125 C-12.1875 22.625 -12.1875 22.625 -8.1875 22.625 C-8.538125 21.820625 -8.88875 21.01625 -9.25 20.1875 C-10.80947556 14.26149289 -10.24716282 9.56771517 -7.3125 4.1875 C-3.36199664 -0.57634228 -3.36199664 -0.57634228 0 0 Z M-37.1875 70.625 C-36.1875 72.625 -36.1875 72.625 -36.1875 72.625 Z " fill="#242433" transform="translate(50.1875,0.375)"/>
<path d="M0 0 C0.598125 0.20625 1.19625 0.4125 1.8125 0.625 C1.049375 1.016875 0.28625 1.40875 -0.5 1.8125 C-3.57556749 3.88671994 -4.59622205 5.29441825 -6.1875 8.625 C-6.54818502 11.97792008 -6.54818502 11.97792008 -6.375 15.4375 C-6.34792969 16.59894531 -6.32085937 17.76039062 -6.29296875 18.95703125 C-6.24076172 20.27767578 -6.24076172 20.27767578 -6.1875 21.625 C-3.8775 21.955 -1.5675 22.285 0.8125 22.625 C-0.1775 22.955 -1.1675 23.285 -2.1875 23.625 C-3.34561388 26.57229537 -3.34561388 26.57229537 -3.1875 29.625 C-9.6875 32.625 -9.6875 32.625 -14.1875 32.625 C-14.5175 31.965 -14.8475 31.305 -15.1875 30.625 C-15.414375 31.285 -15.64125 31.945 -15.875 32.625 C-17.33220493 35.95575412 -19.16245375 38.82991564 -21.1640625 41.85546875 C-22.35438653 43.57285169 -22.35438653 43.57285169 -22.1875 45.625 C-21.775 44.7175 -21.3625 43.81 -20.9375 42.875 C-19.1945403 39.63807485 -18.1717309 37.74537459 -15.1875 35.625 C-12.9163696 35.16406948 -10.71878302 34.93937484 -8.40625 34.80078125 C-6.23144942 34.62848191 -4.28459876 34.21123443 -2.1875 33.625 C-2.1875 32.965 -2.1875 32.305 -2.1875 31.625 C-1.5275 31.625 -0.8675 31.625 -0.1875 31.625 C0.59625 32.429375 1.38 33.23375 2.1875 34.0625 C5.05628796 36.97562458 5.05628796 36.97562458 8.8125 37.625 C11.03021064 36.76709817 11.03021064 36.76709817 12.8125 35.625 C14.64941257 39.40687881 14.97087626 41.57068308 13.8125 45.625 C12.8225 45.625 11.8325 45.625 10.8125 45.625 C10.8125 46.945 10.8125 48.265 10.8125 49.625 C11.3075 48.635 11.3075 48.635 11.8125 47.625 C13.4625 47.625 15.1125 47.625 16.8125 47.625 C17.3075 50.595 17.3075 50.595 17.8125 53.625 C16.8225 54.12 16.8225 54.12 15.8125 54.625 C15.8125 56.275 15.8125 57.925 15.8125 59.625 C14.8225 59.625 13.8325 59.625 12.8125 59.625 C13.3075 62.595 13.3075 62.595 13.8125 65.625 C12.4925 64.635 11.1725 63.645 9.8125 62.625 C9.8125 63.615 9.8125 64.605 9.8125 65.625 C9.50161632 67.29599977 9.17169668 68.96371537 8.8125 70.625 C7.1625 69.305 5.5125 67.985 3.8125 66.625 C4.1425 66.955 4.4725 67.285 4.8125 67.625 C4.85313832 69.29117115 4.855221 70.95888095 4.8125 72.625 C3.78125 71.84125 2.75 71.0575 1.6875 70.25 C-1.46848738 67.98103148 -4.40565519 66.63964129 -8.1875 65.625 C-8.1875 64.965 -8.1875 64.305 -8.1875 63.625 C-5.7125 63.13 -5.7125 63.13 -3.1875 62.625 C-3.8475 61.965 -4.5075 61.305 -5.1875 60.625 C-5.45741906 57.93660615 -5.27487357 55.33358064 -5.1875 52.625 C-6.8375 53.285 -8.4875 53.945 -10.1875 54.625 C-10.1875 54.955 -10.1875 55.285 -10.1875 55.625 C-9.5275 55.625 -8.8675 55.625 -8.1875 55.625 C-10.36931818 65.07954545 -10.36931818 65.07954545 -14.1875 67.625 C-14.8475 64.325 -15.5075 61.025 -16.1875 57.625 C-16.455625 58.553125 -16.72375 59.48125 -17 60.4375 C-20.29036456 65.23203121 -24.68134463 65.55929251 -30.1875 66.625 C-30.1875 65.635 -30.1875 64.645 -30.1875 63.625 C-32.39149168 68.17991614 -32.77596263 72.65406176 -33.1875 77.625 C-33.8475 76.635 -34.5075 75.645 -35.1875 74.625 C-35.8475 75.615 -36.5075 76.605 -37.1875 77.625 C-39.1875 75.625 -39.1875 75.625 -39.3125 73 C-39.27125 72.21625 -39.23 71.4325 -39.1875 70.625 C-37.7025 70.13 -37.7025 70.13 -36.1875 69.625 C-36.8475 65.665 -37.5075 61.705 -38.1875 57.625 C-38.8475 57.625 -39.5075 57.625 -40.1875 57.625 C-39.8125 55.1875 -39.8125 55.1875 -39.1875 52.625 C-38.1975 52.13 -38.1975 52.13 -37.1875 51.625 C-37.1875 50.965 -37.1875 50.305 -37.1875 49.625 C-36.5275 49.625 -35.8675 49.625 -35.1875 49.625 C-35.125625 48.635 -35.125625 48.635 -35.0625 47.625 C-33.79335067 43.27363087 -31.28527385 39.91139708 -28.1875 36.625 C-26.8595307 35.94771147 -25.5269795 35.27922999 -24.1875 34.625 C-23.89875 33.861875 -23.61 33.09875 -23.3125 32.3125 C-21.50012025 27.98292615 -17.97529599 25.72922693 -14.0625 23.3125 C-12.1875 22.625 -12.1875 22.625 -8.1875 22.625 C-8.538125 21.820625 -8.88875 21.01625 -9.25 20.1875 C-10.80947556 14.26149289 -10.24716282 9.56771517 -7.3125 4.1875 C-3.36199664 -0.57634228 -3.36199664 -0.57634228 0 0 Z M-37.1875 70.625 C-36.1875 72.625 -36.1875 72.625 -36.1875 72.625 Z " fill="#F1AE46" transform="translate(50.1875,0.375)"/>
<path d="M0 0 C2 0 2 0 3.625 1.5 C4.07875 1.995 4.5325 2.49 5 3 C5 2.34 5 1.68 5 1 C5.66 1 6.32 1 7 1 C7.33 1.66 7.66 2.32 8 3 C10.15811388 2.05270463 10.15811388 2.05270463 12 0 C12 0.66 12 1.32 12 2 C12.99 2.33 13.98 2.66 15 3 C15 3.66 15 4.32 15 5 C14.01 5.33 13.02 5.66 12 6 C12.57621094 6.12890625 13.15242188 6.2578125 13.74609375 6.390625 C18.60309171 7.70378216 22.87354917 9.55673487 26 13.5625 C27 16 27 16 27 19 C27.66 19 28.32 19 29 19 C29.19335938 19.66386719 29.38671875 20.32773437 29.5859375 21.01171875 C29.97652344 22.33623047 29.97652344 22.33623047 30.375 23.6875 C30.64441406 24.60273437 30.91382813 25.51796875 31.19140625 26.4609375 C31.96915528 29.0904371 31.96915528 29.0904371 33.3125 31.8125 C34.26546617 34.8446651 33.2308605 36.08480408 32 39 C31.52459616 42.32271502 31.24694619 45.65322923 31 49 C31.66 49 32.32 49 33 49 C32.505 50.423125 32.505 50.423125 32 51.875 C30.72672603 55.65772431 30.72672603 55.65772431 32.09375 59.1640625 C32.5578125 59.97617188 33.021875 60.78828125 33.5 61.625 C33.9640625 62.44226563 34.428125 63.25953125 34.90625 64.1015625 C35.2671875 64.72804688 35.628125 65.35453125 36 66 C32.5625 65.1875 32.5625 65.1875 29 64 C28.67 63.01 28.34 62.02 28 61 C25.13275314 61.57344937 24.1385485 61.8614515 22 64 C22.34523398 69.88010513 22.34523398 69.88010513 25 75 C24.67 75.99 24.34 76.98 24 78 C17.58361775 73.08532423 17.58361775 73.08532423 17 69 C16.34 68.67 15.68 68.34 15 68 C15.20625 69.11375 15.4125 70.2275 15.625 71.375 C15.74875 72.57125 15.8725 73.7675 16 75 C15.01 75.99 15.01 75.99 14 77 C14 74.36 14 71.72 14 69 C13.05125 68.855625 12.1025 68.71125 11.125 68.5625 C8 68 8 68 6 67 C3.40751328 66.72824182 0.81551489 66.55427432 -1.78515625 66.37890625 C-2.51605469 66.25386719 -3.24695312 66.12882812 -4 66 C-4.33 65.34 -4.66 64.68 -5 64 C-4.525625 63.566875 -4.05125 63.13375 -3.5625 62.6875 C-1.76313043 60.97690387 -1.76313043 60.97690387 -1 58 C3.95 58.66 8.9 59.32 14 60 C14.33 58.68 14.66 57.36 15 56 C11.04 56 7.08 56 3 56 C6 52 6 52 9.1796875 51.21484375 C18.94013073 50.48229463 18.94013073 50.48229463 22.03125 51.9921875 C23.375 53.3125 23.375 53.3125 25 56 C25 56.66 25 57.32 25 58 C25.99 57.505 25.99 57.505 27 57 C26.69029053 53.59319587 26.31233339 51.43958033 24.3125 48.625 C21.25186275 46.47428193 19.68316976 46.48435623 16 47 C13.98473831 47.96887581 11.98166034 48.9641321 10 50 C9.34 49.67 8.68 49.34 8 49 C8.27714844 48.50371094 8.55429688 48.00742188 8.83984375 47.49609375 C11.2651899 42.94749083 12.46987406 39.19523425 13 34 C13.33 33.67 13.66 33.34 14 33 C13.20573309 25.21618428 12.06014272 18.13350633 7 12 C3.81509993 11.7226499 3.81509993 11.7226499 1 14 C-1.53926173 12.17328621 -3.9050512 10.33122122 -6 8 C-6.4375 4.625 -6.4375 4.625 -6 2 C-3 1 -3 1 0 2 C0 1.34 0 0.68 0 0 Z " fill="#F7A543" transform="translate(56,23)"/>
<path d="M0 0 C0 2.64 0 5.28 0 8 C2.51083114 6.74458443 2.87125446 5.49936512 4 3 C11.38461538 3.49230769 11.38461538 3.49230769 14.5 6.0625 C14.995 6.701875 15.49 7.34125 16 8 C15.34 9.98 14.68 11.96 14 14 C12.68 13.01 11.36 12.02 10 11 C10 12.32 10 13.64 10 15 C8.38613402 18.15088121 6.62408366 20.62582907 4 23 C4 22.34 4 21.68 4 21 C1.69 21.66 -0.62 22.32 -3 23 C-3.495 20.525 -3.495 20.525 -4 18 C-4 18.33 -4 18.66 -4 19 C-4.309375 19.8971875 -4.309375 19.8971875 -4.625 20.8125 C-5.09546889 23.55690187 -4.31059989 24.61390784 -3 27 C-2.443125 26.80664062 -1.88625 26.61328125 -1.3125 26.4140625 C1.11748189 25.58491327 3.55749952 24.79144589 6 24 C6.73863281 23.74089844 7.47726563 23.48179688 8.23828125 23.21484375 C10.3125 22.5625 10.3125 22.5625 14 22 C16.3125 23.75 16.3125 23.75 18 26 C20.53774984 28.09245003 20.53774984 28.09245003 22 28 C24.33333333 28 26.66666667 28 29 28 C29.99 29.98 29.99 29.98 31 32 C28.70912072 33.48039849 26.41734017 34.95936676 24.125 36.4375 C23.47402344 36.85837891 22.82304688 37.27925781 22.15234375 37.71289062 C17.2265625 40.88671875 17.2265625 40.88671875 15 42 C20.91492272 41.54775239 26.35199888 40.8417395 32 39 C28.1676152 43.77038108 21.73379149 44.14490277 16 45 C12.74350451 45.04110583 10.21789508 44.68578092 7 44 C6.34 43.34 5.68 42.68 5 42 C5 41.01 5 40.02 5 39 C7.475 38.505 7.475 38.505 10 38 C9.360625 37.896875 8.72125 37.79375 8.0625 37.6875 C7.381875 37.460625 6.70125 37.23375 6 37 C5.67 36.01 5.34 35.02 5 34 C2.49552484 32.78130071 2.49552484 32.78130071 0 32 C0.16371094 32.56203125 0.32742187 33.1240625 0.49609375 33.703125 C1.02864997 36.13059056 1.09898681 38.26889681 1.0625 40.75 C1.05347656 41.54921875 1.04445312 42.3484375 1.03515625 43.171875 C1.02355469 43.77515625 1.01195312 44.3784375 1 45 C-1.69890283 40.95164576 -2.55245457 36.70344681 -3.8046875 32.03125 C-5.12187654 28.69092747 -5.80644366 27.57747342 -9 26 C-17.05639426 24.9258141 -24.15554899 25.49194927 -30.8125 30.3125 C-32.49100249 32.69774038 -33.19584897 35.21640028 -34 38 C-34.33 38 -34.66 38 -35 38 C-35.42593201 33.7406799 -35.28798126 31.49916751 -33.125 27.75 C-28.80847615 23.15062701 -22.43156357 22.12577053 -16.375 21.8125 C-15.199375 21.9053125 -15.199375 21.9053125 -14 22 C-15.32 19.36 -16.64 16.72 -18 14 C-17.34 14 -16.68 14 -16 14 C-16.0825 13.0925 -16.165 12.185 -16.25 11.25 C-16 8 -16 8 -14 5.625 C-13.34 5.08875 -12.68 4.5525 -12 4 C-12 5.32 -12 6.64 -12 8 C-11.484375 7.236875 -10.96875 6.47375 -10.4375 5.6875 C-7.81253972 2.79331303 -4.19156208 0 0 0 Z " fill="#EF8535" transform="translate(35,64)"/>
<path d="M0 0 C0 2.64 0 5.28 0 8 C2.51083114 6.74458443 2.87125446 5.49936512 4 3 C11.38461538 3.49230769 11.38461538 3.49230769 14.5 6.0625 C14.995 6.701875 15.49 7.34125 16 8 C15.34 9.98 14.68 11.96 14 14 C12.68 13.01 11.36 12.02 10 11 C10 12.32 10 13.64 10 15 C8.38613402 18.15088121 6.62408366 20.62582907 4 23 C4 22.34 4 21.68 4 21 C1.69 21.66 -0.62 22.32 -3 23 C-3.495 20.525 -3.495 20.525 -4 18 C-5.175625 19.2375 -5.175625 19.2375 -6.375 20.5 C-10.05610418 23.64132688 -13.35503149 23.41677566 -18.0234375 23.17578125 C-18.67570312 23.11777344 -19.32796875 23.05976562 -20 23 C-20 22.67 -20 22.34 -20 22 C-18.02 22 -16.04 22 -14 22 C-15.32 19.36 -16.64 16.72 -18 14 C-17.34 14 -16.68 14 -16 14 C-16.0825 13.0925 -16.165 12.185 -16.25 11.25 C-16 8 -16 8 -14 5.625 C-13.34 5.08875 -12.68 4.5525 -12 4 C-12 5.32 -12 6.64 -12 8 C-11.484375 7.236875 -10.96875 6.47375 -10.4375 5.6875 C-7.81253972 2.79331303 -4.19156208 0 0 0 Z " fill="#EF913B" transform="translate(35,64)"/>
<path d="M0 0 C1.6875 2.0625 1.6875 2.0625 1.6875 4.0625 C3.0075 3.0725 4.3275 2.0825 5.6875 1.0625 C7.9975 4.3625 10.3075 7.6625 12.6875 11.0625 C12.0275 11.3925 11.3675 11.7225 10.6875 12.0625 C8.65605359 11.12803465 6.65216413 10.13025224 4.6875 9.0625 C4.6875 8.4025 4.6875 7.7425 4.6875 7.0625 C1.82025314 7.63594937 0.8260485 7.9239515 -1.3125 10.0625 C-0.96726602 15.94260513 -0.96726602 15.94260513 1.6875 21.0625 C1.3575 22.0525 1.0275 23.0425 0.6875 24.0625 C-5.72888225 19.14782423 -5.72888225 19.14782423 -6.3125 15.0625 C-6.9725 14.7325 -7.6325 14.4025 -8.3125 14.0625 C-8.10625 15.17625 -7.9 16.29 -7.6875 17.4375 C-7.56375 18.63375 -7.44 19.83 -7.3125 21.0625 C-7.9725 21.7225 -8.6325 22.3825 -9.3125 23.0625 C-9.3125 20.4225 -9.3125 17.7825 -9.3125 15.0625 C-10.26125 14.918125 -11.21 14.77375 -12.1875 14.625 C-15.3125 14.0625 -15.3125 14.0625 -17.3125 13.0625 C-19.90498672 12.79074182 -22.49698511 12.61677432 -25.09765625 12.44140625 C-25.82855469 12.31636719 -26.55945312 12.19132812 -27.3125 12.0625 C-27.6425 11.4025 -27.9725 10.7425 -28.3125 10.0625 C-27.838125 9.629375 -27.36375 9.19625 -26.875 8.75 C-25.07563043 7.03940387 -25.07563043 7.03940387 -24.3125 4.0625 C-16.8875 5.0525 -16.8875 5.0525 -9.3125 6.0625 C-8.9825 4.7425 -8.6525 3.4225 -8.3125 2.0625 C-12.2725 2.0625 -16.2325 2.0625 -20.3125 2.0625 C-17.3125 -1.9375 -17.3125 -1.9375 -15.0078125 -2.58203125 C-3.94467973 -3.30500193 -3.94467973 -3.30500193 0 0 Z " fill="#3B3235" transform="translate(79.3125,76.9375)"/>
<path d="M0 0 C-0.66 0.66 -1.32 1.32 -2 2 C-2.99 2 -3.98 2 -5 2 C-5.66 3.98 -6.32 5.96 -7 8 C-5.51719804 7.21516341 -4.0388502 6.42190666 -2.5625 5.625 C-1.32693359 4.96371094 -1.32693359 4.96371094 -0.06640625 4.2890625 C2.13466578 3.16581441 2.13466578 3.16581441 3 1 C4.65 1 6.3 1 8 1 C8.33 2.98 8.66 4.96 9 7 C8.01 7.495 8.01 7.495 7 8 C7 9.65 7 11.3 7 13 C6.01 13 5.02 13 4 13 C4.33 14.98 4.66 16.96 5 19 C3.68 18.01 2.36 17.02 1 16 C1 16.99 1 17.98 1 19 C0.68911632 20.67099977 0.35919668 22.33871537 0 24 C-1.65 22.68 -3.3 21.36 -5 20 C-4.67 20.33 -4.34 20.66 -4 21 C-3.95936168 22.66617115 -3.957279 24.33388095 -4 26 C-5.03125 25.21625 -6.0625 24.4325 -7.125 23.625 C-10.28098738 21.35603148 -13.21815519 20.01464129 -17 19 C-17 18.34 -17 17.68 -17 17 C-15.35 16.67 -13.7 16.34 -12 16 C-12.05800781 15.33613281 -12.11601563 14.67226563 -12.17578125 13.98828125 C-12.54570259 6.74839213 -12.54570259 6.74839213 -9.8125 3 C-3.28440367 -1.64220183 -3.28440367 -1.64220183 0 0 Z " fill="#744B3D" transform="translate(59,47)"/>
<path d="M0 0 C0.8971875 0.309375 0.8971875 0.309375 1.8125 0.625 C1.049375 1.016875 0.28625 1.40875 -0.5 1.8125 C-3.57556749 3.88671994 -4.59622205 5.29441825 -6.1875 8.625 C-6.54818502 11.97792008 -6.54818502 11.97792008 -6.375 15.4375 C-6.34792969 16.59894531 -6.32085937 17.76039062 -6.29296875 18.95703125 C-6.24076172 20.27767578 -6.24076172 20.27767578 -6.1875 21.625 C-3.8775 21.955 -1.5675 22.285 0.8125 22.625 C-0.1775 22.955 -1.1675 23.285 -2.1875 23.625 C-3.34561388 26.57229537 -3.34561388 26.57229537 -3.1875 29.625 C-9.6875 32.625 -9.6875 32.625 -14.1875 32.625 C-14.5175 31.965 -14.8475 31.305 -15.1875 30.625 C-15.414375 31.285 -15.64125 31.945 -15.875 32.625 C-17.00344497 35.20430279 -18.21651632 37.28488617 -19.75 39.625 C-21.6743731 42.61343823 -22.84949668 45.01963121 -23.1875 48.625 C-23.8475 48.625 -24.5075 48.625 -25.1875 48.625 C-25.75792254 34.38556338 -25.75792254 34.38556338 -22.1875 29.625 C-17.90328445 25.35278506 -14.30615868 22.625 -8.1875 22.625 C-8.538125 21.820625 -8.88875 21.01625 -9.25 20.1875 C-10.80947556 14.26149289 -10.24716282 9.56771517 -7.3125 4.1875 C-3.36199664 -0.57634228 -3.36199664 -0.57634228 0 0 Z " fill="#927356" transform="translate(50.1875,0.375)"/>
<path d="M0 0 C0.66 1.32 1.32 2.64 2 4 C-0.29087928 5.48039849 -2.58265983 6.95936676 -4.875 8.4375 C-5.52597656 8.85837891 -6.17695312 9.27925781 -6.84765625 9.71289062 C-11.7734375 12.88671875 -11.7734375 12.88671875 -14 14 C-8.08507728 13.54775239 -2.64800112 12.8417395 3 11 C-0.8323848 15.77038108 -7.26620851 16.14490277 -13 17 C-16.25649549 17.04110583 -18.78210492 16.68578092 -22 16 C-22.66 15.34 -23.32 14.68 -24 14 C-24 13.01 -24 12.02 -24 11 C-22.35 10.67 -20.7 10.34 -19 10 C-19.99 9.34 -20.98 8.68 -22 8 C-21.67 6.68 -21.34 5.36 -21 4 C-18.03 4 -15.06 4 -12 4 C-12 3.34 -12 2.68 -12 2 C-7.8794254 0.00214565 -4.54805635 -0.17835515 0 0 Z " fill="#A57C45" transform="translate(64,92)"/>
<path d="M0 0 C0.99 0.33 1.98 0.66 3 1 C2.87625 1.886875 2.7525 2.77375 2.625 3.6875 C3.04028076 7.35581339 3.30900395 7.67040465 6 9.875 C6.99 10.57625 7.98 11.2775 9 12 C10.65 11.01 12.3 10.02 14 9 C18.2336452 13.90211549 20.90335323 17.6803333 22.25 24.125 C22.44078125 24.99382813 22.6315625 25.86265625 22.828125 26.7578125 C22.88484375 27.49773438 22.9415625 28.23765625 23 29 C22.34 29.66 21.68 30.32 21 31 C20.34 28.69 19.68 26.38 19 24 C17.35 24 15.7 24 14 24 C13.34 25.32 12.68 26.64 12 28 C12.33 26.02 12.66 24.04 13 22 C13.99 22 14.98 22 16 22 C15.67 18.7 15.34 15.4 15 12 C13.68 12.99 12.36 13.98 11 15 C7.17562766 14.87663315 4.72919835 12.50176516 2 10 C2 9.34 2 8.68 2 8 C1.34 8 0.68 8 0 8 C0 8.66 0 9.32 0 10 C-2.9512204 11.68641166 -5.06047603 12.17976727 -8.4375 12.25 C-12.13261731 12.62072723 -12.91799039 12.93194947 -15.9375 15.4375 C-18.78955885 19.45988645 -19.36528343 24.20646889 -20 29 C-20.66 28.67 -21.32 28.34 -22 28 C-21.04645349 21.65138774 -19.83581971 17.2742521 -16 12 C-14.75675853 8.7750792 -14.75675853 8.7750792 -14 6 C-13.34 6.33 -12.68 6.66 -12 7 C-12 7.66 -12 8.32 -12 9 C-8.37 8.01 -4.74 7.02 -1 6 C-1.66 4.35 -2.32 2.7 -3 1 C-2.34 1.33 -1.68 1.66 -1 2 C-0.67 1.34 -0.34 0.68 0 0 Z " fill="#3A343D" transform="translate(48,24)"/>
<path d="M0 0 C0 2.31 0 4.62 0 7 C-0.99 7.33 -1.98 7.66 -3 8 C-4.74462767 11.36002365 -6.02441017 13.92595241 -5.9375 17.75 C-6 20 -6 20 -7.67578125 21.62890625 C-10.4508035 23.26593618 -12.05842796 23.31348311 -15.25 23.1875 C-16.14203125 23.16042969 -17.0340625 23.13335937 -17.953125 23.10546875 C-18.62859375 23.07066406 -19.3040625 23.03585938 -20 23 C-20 22.67 -20 22.34 -20 22 C-18.02 22 -16.04 22 -14 22 C-15.32 19.36 -16.64 16.72 -18 14 C-17.34 14 -16.68 14 -16 14 C-16.0825 13.0925 -16.165 12.185 -16.25 11.25 C-16 8 -16 8 -14 5.625 C-13.34 5.08875 -12.68 4.5525 -12 4 C-12 5.32 -12 6.64 -12 8 C-11.484375 7.236875 -10.96875 6.47375 -10.4375 5.6875 C-7.81253972 2.79331303 -4.19156208 0 0 0 Z " fill="#F0A541" transform="translate(35,64)"/>
<path d="M0 0 C1.32 0 2.64 0 4 0 C4.144375 1.093125 4.28875 2.18625 4.4375 3.3125 C4.88288104 6.93122987 4.88288104 6.93122987 6 10 C4.35 10.33 2.7 10.66 1 11 C1 11.66 1 12.32 1 13 C1.94875 13.12375 2.8975 13.2475 3.875 13.375 C7 14 7 14 9 16 C5.25838897 16 1.71046443 15.48661829 -2 15 C-2.99 16.485 -2.99 16.485 -4 18 C-3.01 18.33 -2.02 18.66 -1 19 C-2.65 19 -4.3 19 -6 19 C-6.33 16.69 -6.66 14.38 -7 12 C-11.49365277 13.81453912 -14.39650543 15.01932133 -17 19.25 C-17.33 20.1575 -17.66 21.065 -18 22 C-18.33 22 -18.66 22 -19 22 C-19 20.02 -19 18.04 -19 16 C-21.12508244 19.18762365 -21.5020163 21.26512223 -22 25 C-22.66 25 -23.32 25 -24 25 C-24.35050464 19.158256 -24.16727335 15.1468192 -21 10 C-20.67 10.99 -20.34 11.98 -20 13 C-16.53529051 12.27126037 -13.23308874 11.46131329 -10 10 C-8.23902514 6.98226415 -8.23902514 6.98226415 -8 4 C-5.2027092 6.06756277 -4.97307727 7.14440371 -4.3125 10.6875 C-4.209375 11.780625 -4.10625 12.87375 -4 14 C-1.41872753 11.41872753 -1.57837766 9.5425632 -1 6 C-0.34 5.01 0.32 4.02 1 3 C-0.32 3.33 -1.64 3.66 -3 4 C-1.75 2 -1.75 2 0 0 Z " fill="#3D3339" transform="translate(41,53)"/>
<path d="M0 0 C2 0 2 0 3.625 1.5 C4.07875 1.995 4.5325 2.49 5 3 C5 2.34 5 1.68 5 1 C5.66 1 6.32 1 7 1 C7.33 1.66 7.66 2.32 8 3 C10.15811388 2.05270463 10.15811388 2.05270463 12 0 C12 0.66 12 1.32 12 2 C12.99 2.33 13.98 2.66 15 3 C15 3.66 15 4.32 15 5 C14.01 5.33 13.02 5.66 12 6 C12.57621094 6.12890625 13.15242188 6.2578125 13.74609375 6.390625 C18.60309171 7.70378216 22.87354917 9.55673487 26 13.5625 C27 16 27 16 27 19 C27.66 19 28.32 19 29 19 C29.66 21.97 30.32 24.94 31 28 C30.34 28 29.68 28 29 28 C28.7525 27.29875 28.505 26.5975 28.25 25.875 C26.83911974 22.62997541 25.02104602 19.89683263 23 17 C21.02 17.99 21.02 17.99 19 19 C18.67 17.02 18.34 15.04 18 13 C15.525 12.505 15.525 12.505 13 12 C13 11.34 13 10.68 13 10 C12.16855469 9.75765625 11.33710937 9.5153125 10.48046875 9.265625 C8.85044922 8.76289063 8.85044922 8.76289063 7.1875 8.25 C6.10855469 7.92515625 5.02960937 7.6003125 3.91796875 7.265625 C0.8179879 5.92105499 -0.28984765 4.85625445 -2 2 C-1.34 2 -0.68 2 0 2 C0 1.34 0 0.68 0 0 Z " fill="#F7BC62" transform="translate(56,23)"/>
<path d="M0 0 C1.6875 2.0625 1.6875 2.0625 1.6875 4.0625 C3.0075 3.0725 4.3275 2.0825 5.6875 1.0625 C7.9975 4.3625 10.3075 7.6625 12.6875 11.0625 C12.0275 11.3925 11.3675 11.7225 10.6875 12.0625 C8.65605359 11.12803465 6.65216413 10.13025224 4.6875 9.0625 C4.6875 8.4025 4.6875 7.7425 4.6875 7.0625 C1.33154172 7.66177826 -0.69051226 8.90872436 -3.3125 11.0625 C-3.45042969 10.49660156 -3.58835937 9.93070313 -3.73046875 9.34765625 C-4.64008646 6.72038478 -5.38547971 5.0925236 -7.3125 3.0625 C-11.65449992 2.02664588 -15.86288819 1.9596188 -20.3125 2.0625 C-18.74668813 -0.49089909 -17.95048949 -1.75907921 -15.0078125 -2.58203125 C-3.94467973 -3.30500193 -3.94467973 -3.30500193 0 0 Z " fill="#D66F35" transform="translate(79.3125,76.9375)"/>
<path d="M0 0 C0.66 0.33 1.32 0.66 2 1 C1.34 2.65 0.68 4.3 0 6 C-0.66 6 -1.32 6 -2 6 C-2.268125 6.680625 -2.53625 7.36125 -2.8125 8.0625 C-3.67270404 10.19037315 -4.59824592 12.29221119 -5.5625 14.375 C-7.72964851 19.83998321 -8.88952669 25.33141993 -7 31 C-6.931009 33.06145107 -6.91532273 35.12501401 -6.9375 37.1875 C-6.94652344 38.27417969 -6.95554687 39.36085937 -6.96484375 40.48046875 C-6.97644531 41.31191406 -6.98804688 42.14335938 -7 43 C-7.66 42.01 -8.32 41.02 -9 40 C-9.66 40.99 -10.32 41.98 -11 43 C-13 41 -13 41 -13.125 38.375 C-13.08375 37.59125 -13.0425 36.8075 -13 36 C-11.515 35.505 -11.515 35.505 -10 35 C-10.66 31.04 -11.32 27.08 -12 23 C-12.66 23 -13.32 23 -14 23 C-13.625 20.5625 -13.625 20.5625 -13 18 C-12.34 17.67 -11.68 17.34 -11 17 C-11 16.34 -11 15.68 -11 15 C-10.34 15 -9.68 15 -9 15 C-8.95875 14.34 -8.9175 13.68 -8.875 13 C-7.3729774 7.85020823 -3.75888684 3.75888684 0 0 Z M-11 36 C-10 38 -10 38 -10 38 Z " fill="#F8BD61" transform="translate(24,35)"/>
<path d="M0 0 C2.48836965 3.73255448 2.54226552 5.58440935 2 10 C-0.375 12.3125 -0.375 12.3125 -3 14 C-3.66 14.66 -4.32 15.32 -5 16 C-6.98123976 16.58818055 -8.98569222 17.10008079 -11 17.5625 C-15.11547915 18.46076773 -15.11547915 18.46076773 -19 20 C-19.66 18.02 -20.32 16.04 -21 14 C-20.34 14 -19.68 14 -19 14 C-19.66 12.68 -20.32 11.36 -21 10 C-20.34 9.34 -19.68 8.68 -19 8 C-18.34 9.98 -17.68 11.96 -17 14 C-16.67 13.67 -16.34 13.34 -16 13 C-14.33333333 13 -12.66666667 13 -11 13 C-10.67 12.67 -10.34 12.34 -10 12 C-9.01 11.34 -8.02 10.68 -7 10 C-6.08600973 6.4202048 -5.82158072 4.53525784 -7 1 C-5 1 -5 1 -2.875 3 C-2.25625 3.66 -1.6375 4.32 -1 5 C-0.67 3.35 -0.34 1.7 0 0 Z " fill="#232232" transform="translate(50,72)"/>
<path d="M0 0 C0.66 0.33 1.32 0.66 2 1 C1.7834375 1.8353125 1.7834375 1.8353125 1.5625 2.6875 C0.97230872 5.11384195 0.476571 7.54906345 0 10 C2.97 10.33 5.94 10.66 9 11 C9 10.34 9 9.68 9 9 C11.31 7.68 13.62 6.36 16 5 C16 9.29 16 13.58 16 18 C16.66 18.33 17.32 18.66 18 19 C17.67 19.99 17.34 20.98 17 22 C16.01 22 15.02 22 14 22 C12.59886384 20.04690112 11.26660533 18.04291182 10 16 C8.14221359 13.72704971 8.14221359 13.72704971 5.25 13.6875 C1.57561343 14.0408064 -0.75803679 15.30533741 -4 17 C-4.66 16.67 -5.32 16.34 -6 16 C-5.72285156 15.50371094 -5.44570312 15.00742188 -5.16015625 14.49609375 C-2.7348101 9.94749083 -1.53012594 6.19523425 -1 1 C-0.67 0.67 -0.34 0.34 0 0 Z " fill="#F38C3B" transform="translate(70,56)"/>
<path d="M0 0 C2.9375 2.0625 2.9375 2.0625 5 4 C4.34 6.31 3.68 8.62 3 11 C1.35 9.68 -0.3 8.36 -2 7 C-1.67 7.33 -1.34 7.66 -1 8 C-0.95936168 9.66617115 -0.957279 11.33388095 -1 13 C-2.03125 12.21625 -3.0625 11.4325 -4.125 10.625 C-7.28098738 8.35603148 -10.21815519 7.01464129 -14 6 C-14 5.34 -14 4.68 -14 4 C-12.35 3.67 -10.7 3.34 -9 3 C-9 2.01 -9 1.02 -9 0 C-5.81229009 -1.59385496 -3.40972958 -0.75129635 0 0 Z " fill="#C46F3D" transform="translate(56,60)"/>
<path d="M0 0 C2.31 0 4.62 0 7 0 C7.66 2.31 8.32 4.62 9 7 C8.34 7 7.68 7 7 7 C7.20625 8.11375 7.4125 9.2275 7.625 10.375 C7.74875 11.57125 7.8725 12.7675 8 14 C7.34 14.66 6.68 15.32 6 16 C6 13.36 6 10.72 6 8 C5.05125 7.855625 4.1025 7.71125 3.125 7.5625 C0 7 0 7 -2 6 C-4.59248672 5.72824182 -7.18448511 5.55427432 -9.78515625 5.37890625 C-10.51605469 5.25386719 -11.24695312 5.12882812 -12 5 C-12.33 4.34 -12.66 3.68 -13 3 C-9.68629 0.79086 -8.6553979 0.77518447 -4.8125 0.875 C-3.91144531 0.89304687 -3.01039062 0.91109375 -2.08203125 0.9296875 C-1.39496094 0.95289062 -0.70789062 0.97609375 0 1 C0 0.67 0 0.34 0 0 Z " fill="#EA903F" transform="translate(64,84)"/>
<path d="M0 0 C0.8971875 0.309375 0.8971875 0.309375 1.8125 0.625 C0.6678125 1.2128125 0.6678125 1.2128125 -0.5 1.8125 C-3.57556749 3.88671994 -4.59622205 5.29441825 -6.1875 8.625 C-6.54818502 11.97792008 -6.54818502 11.97792008 -6.375 15.4375 C-6.34792969 16.59894531 -6.32085937 17.76039062 -6.29296875 18.95703125 C-6.25816406 19.83746094 -6.22335938 20.71789062 -6.1875 21.625 C-3.8775 21.955 -1.5675 22.285 0.8125 22.625 C-0.1775 22.955 -1.1675 23.285 -2.1875 23.625 C-3.34561388 26.57229537 -3.34561388 26.57229537 -3.1875 29.625 C-9.6875 32.75 -9.6875 32.75 -14.1875 31.625 C-11.5475 30.965 -8.9075 30.305 -6.1875 29.625 C-6.5175 28.305 -6.8475 26.985 -7.1875 25.625 C-6.8575 24.965 -6.5275 24.305 -6.1875 23.625 C-6.8475 23.625 -7.5075 23.625 -8.1875 23.625 C-10.20620113 18.0438851 -10.66569746 13.43220429 -9.1875 7.625 C-4.59842637 -0.78830166 -4.59842637 -0.78830166 0 0 Z " fill="#A97F49" transform="translate(50.1875,0.375)"/>
<path d="M0 0 C1.18851563 0.00902344 2.37703125 0.01804688 3.6015625 0.02734375 C4.51679687 0.03894531 5.43203125 0.05054688 6.375 0.0625 C4.0123057 9.63762953 4.0123057 9.63762953 0.375 12.0625 C-0.285 8.7625 -0.945 5.4625 -1.625 2.0625 C-1.934375 3.01125 -2.24375 3.96 -2.5625 4.9375 C-4.88742495 8.46011356 -5.40003367 8.60087198 -9.3125 9.4375 C-10.74617128 9.67072882 -12.1831019 9.88717486 -13.625 10.0625 C-12.8203125 8.140625 -12.8203125 8.140625 -11.625 6.0625 C-8.5 4.8125 -8.5 4.8125 -5.625 4.0625 C-6.615 3.0725 -7.605 2.0825 -8.625 1.0625 C-5.74084117 -0.37957941 -3.20778472 -0.03144887 0 0 Z " fill="#DA854B" transform="translate(35.625,55.9375)"/>
<path d="M0 0 C0.66 1.32 1.32 2.64 2 4 C-0.26307691 5.53363072 -2.53416825 7.05184259 -4.8125 8.5625 C-5.45509766 9.00013672 -6.09769531 9.43777344 -6.75976562 9.88867188 C-8.4567518 11.00534154 -10.22577058 12.01064506 -12 13 C-12.99 12.67 -13.98 12.34 -15 12 C-14.34 11.46375 -13.68 10.9275 -13 10.375 C-10.68975201 8.10041408 -10.68975201 8.10041408 -10.75 4.75 C-10.8325 3.8425 -10.915 2.935 -11 2 C-7.36576791 -0.32590854 -4.22911669 -0.16265833 0 0 Z " fill="#E59644" transform="translate(64,92)"/>
<path d="M0 0 C0.33 0.99 0.66 1.98 1 3 C0.01 4.485 0.01 4.485 -1 6 C-3.61963987 6.30854196 -6.06292996 6.46686747 -8.6875 6.5 C-15.20654291 6.58458443 -20.368021 7.36994624 -25.8125 11.3125 C-27.49100249 13.69774038 -28.19584897 16.21640028 -29 19 C-29.33 19 -29.66 19 -30 19 C-30.44812315 14.51876853 -30.33353013 12.50505991 -27.8125 8.6875 C-22.08616666 3.21567036 -16.19706052 3.67710888 -8.59375 3.44140625 C-4.91472227 2.98952567 -2.97343105 2.14430124 0 0 Z " fill="#8B623A" transform="translate(30,83)"/>
<path d="M0 0 C2.99220268 1.36370299 5.29026529 2.94908083 7.75 5.125 C8.67039062 5.93324219 8.67039062 5.93324219 9.609375 6.7578125 C10.06828125 7.16773438 10.5271875 7.57765625 11 8 C9.35 9.65 7.7 11.3 6 13 C3.4608156 11.17334183 1.10026121 9.3260393 -1 7 C-1.5 3.6875 -1.5 3.6875 -1 1 C-0.67 0.67 -0.34 0.34 0 0 Z " fill="#ECA35A" transform="translate(51,24)"/>
<path d="M0 0 C2.86299506 2.86299506 2.99421225 4.65852284 3.0625 8.6875 C3.041875 9.780625 3.02125 10.87375 3 12 C3.66 12.33 4.32 12.66 5 13 C3.68 13.99 2.36 14.98 1 16 C4.3 16.33 7.6 16.66 11 17 C7.89448334 20.10551666 6.10801767 20.81323934 2 22 C2 21.01 2 20.02 2 19 C0.4645122 17.53909212 0.4645122 17.53909212 -1.5 16.3125 C-2.1496875 15.87550781 -2.799375 15.43851563 -3.46875 14.98828125 C-3.9740625 14.66214844 -4.479375 14.33601563 -5 14 C-3.36587557 12.29159719 -2.13093906 11.06546953 0 10 C0 6.7 0 3.4 0 0 Z " fill="#4A3338" transform="translate(51,72)"/>
<path d="M0 0 C7.38461538 0.49230769 7.38461538 0.49230769 10.5 3.0625 C10.995 3.701875 11.49 4.34125 12 5 C11.34 6.98 10.68 8.96 10 11 C8 9.625 8 9.625 6 8 C6 7.34 6 6.68 6 6 C4.35 6 2.7 6 1 6 C1 5.34 1 4.68 1 4 C0.01 4 -0.98 4 -2 4 C-1.34 2.68 -0.68 1.36 0 0 Z " fill="#E99D56" transform="translate(39,67)"/>
<path d="M0 0 C-0.66 0.66 -1.32 1.32 -2 2 C-2.99 2 -3.98 2 -5 2 C-5.66 3.98 -6.32 5.96 -7 8 C-5.35 7.34 -3.7 6.68 -2 6 C-2.33 6.99 -2.66 7.98 -3 9 C-3.99 9.33 -4.98 9.66 -6 10 C-5.67 10.66 -5.34 11.32 -5 12 C-7.31 12.33 -9.62 12.66 -12 13 C-12.42455919 8.66949629 -12.53642731 6.68969225 -9.8125 3.1875 C-3.47826087 -1.73913043 -3.47826087 -1.73913043 0 0 Z " fill="#433A3B" transform="translate(59,47)"/>
<path d="M0 0 C1.47193312 2.94386623 0.84936173 5.37390036 0.5625 8.625 C0.46066406 9.81351563 0.35882812 11.00203125 0.25390625 12.2265625 C0.17011719 13.14179687 0.08632813 14.05703125 0 15 C0.99 15.33 1.98 15.66 3 16 C3 16.99 3 17.98 3 19 C-0.3 19 -3.6 19 -7 19 C-7 18.67 -7 18.34 -7 18 C-5.02 18 -3.04 18 -1 18 C-2.32 15.36 -3.64 12.72 -5 10 C-4.34 10 -3.68 10 -3 10 C-3.061875 9.0925 -3.12375 8.185 -3.1875 7.25 C-2.98327924 3.71017358 -2.35448165 2.55068845 0 0 Z " fill="#EDAA47" transform="translate(22,68)"/>
<path d="M0 0 C2.97 0.495 2.97 0.495 6 1 C6 2.98 6 4.96 6 7 C1.64722617 9.05547653 1.64722617 9.05547653 -1.1875 8.8125 C-3 8 -3 8 -5 5 C-4.175 4.360625 -3.35 3.72125 -2.5 3.0625 C-1.675 2.381875 -0.85 1.70125 0 1 C0 0.67 0 0.34 0 0 Z " fill="#DCA767" transform="translate(38,23)"/>
<path d="M0 0 C1.32 0 2.64 0 4 0 C3.67 0.53625 3.34 1.0725 3 1.625 C1.75908477 4.57217367 1.79321834 6.82934784 2 10 C2.33 10.66 2.66 11.32 3 12 C5.31 12 7.62 12 10 12 C10.33 11.01 10.66 10.02 11 9 C11.66 9 12.32 9 13 9 C11.70700306 11.88437779 10.34058637 13.87219421 8 16 C8 15.34 8 14.68 8 14 C5.69 14.66 3.38 15.32 1 16 C0.67 14.35 0.34 12.7 0 11 C-0.99 11 -1.98 11 -3 11 C-2.11223998 7.30099992 -1.05418136 3.65449539 0 0 Z " fill="#A26C45" transform="translate(31,71)"/>
<path d="M0 0 C3.79951706 1.49266742 5.8354862 3.55281135 8 7 C7.75 9.8125 7.75 9.8125 7 12 C6.34 12 5.68 12 5 12 C5 11.34 5 10.68 5 10 C4.360625 9.71125 3.72125 9.4225 3.0625 9.125 C1 8 1 8 0 6 C-0.039992 4.00039988 -0.04346799 1.99952758 0 0 Z " fill="#37303A" transform="translate(76,69)"/>
<path d="M0 0 C2.1385485 2.1385485 2.42655063 3.13275314 3 6 C3.33 5.67 3.66 5.34 4 5 C7.72224599 4.70613847 8.77786243 4.85190829 12 7 C11 9 11 9 8.71484375 9.8515625 C7.79832031 10.10679688 6.88179687 10.36203125 5.9375 10.625 C5.01839844 10.88539062 4.09929688 11.14578125 3.15234375 11.4140625 C2.44207031 11.60742188 1.73179688 11.80078125 1 12 C0.34 10.02 -0.32 8.04 -1 6 C-0.34 6 0.32 6 1 6 C0.649375 5.38125 0.29875 4.7625 -0.0625 4.125 C-0.371875 3.42375 -0.68125 2.7225 -1 2 C-0.67 1.34 -0.34 0.68 0 0 Z " fill="#2D283C" transform="translate(30,80)"/>
<path d="M0 0 C0.66 0.33 1.32 0.66 2 1 C1.7834375 1.8353125 1.7834375 1.8353125 1.5625 2.6875 C0.97230872 5.11384195 0.476571 7.54906345 0 10 C1.98 10.66 3.96 11.32 6 12 C4.66666667 12.66666667 3.33333333 13.33333333 2 14 C0.453125 14.8353125 0.453125 14.8353125 -1.125 15.6875 C-2.07375 16.120625 -3.0225 16.55375 -4 17 C-4.66 16.67 -5.32 16.34 -6 16 C-5.72285156 15.50371094 -5.44570312 15.00742188 -5.16015625 14.49609375 C-2.7348101 9.94749083 -1.53012594 6.19523425 -1 1 C-0.67 0.67 -0.34 0.34 0 0 Z " fill="#DB7E37" transform="translate(70,56)"/>
<path d="M0 0 C4.75 0.75 4.75 0.75 7 3 C9.77898141 9.0296248 10.31289083 14.42929266 10 21 C7.30109717 16.95164576 6.44754543 12.70344681 5.1953125 8.03125 C3.90191913 4.75127204 2.87542594 3.87684706 0 2 C0 1.34 0 0.68 0 0 Z " fill="#C08C45" transform="translate(26,88)"/>
<path d="M0 0 C2.31 0 4.62 0 7 0 C7.66 2.31 8.32 4.62 9 7 C8.34 7 7.68 7 7 7 C7.20625 8.11375 7.4125 9.2275 7.625 10.375 C7.74875 11.57125 7.8725 12.7675 8 14 C7.34 14.66 6.68 15.32 6 16 C6 13.36 6 10.72 6 8 C4.68 7.67 3.36 7.34 2 7 C2.99 7 3.98 7 5 7 C4.175 6.030625 3.35 5.06125 2.5 4.0625 C0 1 0 1 0 0 Z " fill="#91653E" transform="translate(64,84)"/>
<path d="M0 0 C3.67033927 3.27708863 5.69281189 6.71522208 8 11 C4.5625 10.1875 4.5625 10.1875 1 9 C0.67 8.01 0.34 7.02 0 6 C-1.65 5.67 -3.3 5.34 -5 5 C-4 3 -4 3 -1 2 C-0.67 1.34 -0.34 0.68 0 0 Z " fill="#A77A44" transform="translate(84,78)"/>
<path d="M0 0 C2.875 1.75 2.875 1.75 5 4 C5.3125 6.75 5.3125 6.75 5 9 C3.96875 8.21625 2.9375 7.4325 1.875 6.625 C-1.28098738 4.35603148 -4.21815519 3.01464129 -8 2 C-8 1.34 -8 0.68 -8 0 C-5.0233079 -1.48834605 -3.18307201 -0.8113713 0 0 Z " fill="#C9723C" transform="translate(50,64)"/>
<path d="M0 0 C0.8353125 0.37125 0.8353125 0.37125 1.6875 0.75 C0.5428125 1.3378125 0.5428125 1.3378125 -0.625 1.9375 C-3.73781567 4.0368408 -4.81795441 5.31254514 -6.3125 8.75 C-6.65687504 11.12416205 -6.87303677 13.46406701 -7.00390625 15.859375 C-7.10574219 16.48328125 -7.20757812 17.1071875 -7.3125 17.75 C-7.9725 18.08 -8.6325 18.41 -9.3125 18.75 C-10.63134151 12.99505522 -10.2501226 8.94992967 -7.3125 3.75 C-3.39618201 -0.36715481 -3.39618201 -0.36715481 0 0 Z " fill="#C18E46" transform="translate(50.3125,0.25)"/>
<path d="M0 0 C1.22589844 0.01353516 1.22589844 0.01353516 2.4765625 0.02734375 C3.41628906 0.04474609 3.41628906 0.04474609 4.375 0.0625 C3.73949219 0.330625 3.10398437 0.59875 2.44921875 0.875 C0.05493362 1.95928812 0.05493362 1.95928812 -0.8125 5.0625 C-2.625 8.0625 -2.625 8.0625 -4.8125 8.8984375 C-7.08127543 9.3876422 -9.32158304 9.78241995 -11.625 10.0625 C-10.8203125 8.140625 -10.8203125 8.140625 -9.625 6.0625 C-6.5 4.8125 -6.5 4.8125 -3.625 4.0625 C-4.615 3.0725 -5.605 2.0825 -6.625 1.0625 C-4.21954362 -0.14022819 -2.67503047 -0.03821472 0 0 Z " fill="#946B4F" transform="translate(33.625,55.9375)"/>
<path d="M0 0 C0.66 0 1.32 0 2 0 C3.83691257 3.78187881 4.15837626 5.94568308 3 10 C1.68 10.33 0.36 10.66 -1 11 C-2.50662097 7.98675805 -2.17770373 5.31713623 -2 2 C-1.34 1.34 -0.68 0.68 0 0 Z " fill="#AC6E45" transform="translate(61,36)"/>
<path d="M0 0 C0.66 0 1.32 0 2 0 C2 1.32 2 2.64 2 4 C1.01 4 0.02 4 -1 4 C-0.938125 4.804375 -0.87625 5.60875 -0.8125 6.4375 C-1.05139407 10.97648733 -2.42043264 14.76901601 -4 19 C-4.33 19 -4.66 19 -5 19 C-5.56016598 7.34024896 -5.56016598 7.34024896 -2 2 C-1.34 1.34 -0.68 0.68 0 0 Z " fill="#E6A964" transform="translate(31,30)"/>
<path d="M0 0 C0.99 0.66 1.98 1.32 3 2 C3 2.66 3 3.32 3 4 C-0.36683915 6.43160605 -1.73350364 7 -6 7 C-6.33 5.35 -6.66 3.7 -7 2 C-3.6875 0.875 -3.6875 0.875 0 0 Z " fill="#DE7E33" transform="translate(63,92)"/>
<path d="M0 0 C0.66 0.33 1.32 0.66 2 1 C2 1.99 2 2.98 2 4 C2.66 4 3.32 4 4 4 C4 6.97 4 9.94 4 13 C3.34 12.01 2.68 11.02 2 10 C1.01 11.485 1.01 11.485 0 13 C-2 11 -2 11 -2.125 8.375 C-2.08375 7.59125 -2.0425 6.8075 -2 6 C-1.01 5.67 -0.02 5.34 1 5 C0.67 3.35 0.34 1.7 0 0 Z M0 6 C1 8 1 8 1 8 Z " fill="#F8B959" transform="translate(13,65)"/>
<path d="M0 0 C0.66 0.66 1.32 1.32 2 2 C1.67 2.99 1.34 3.98 1 5 C1.66 5.33 2.32 5.66 3 6 C1.576875 7.0828125 1.576875 7.0828125 0.125 8.1875 C-4.78202092 12.30939758 -5.2684041 16.78143486 -6 23 C-6.66 22.67 -7.32 22.34 -8 22 C-7.04645349 15.65138774 -5.83581971 11.2742521 -2 6 C-0.75675853 2.7750792 -0.75675853 2.7750792 0 0 Z " fill="#4E4346" transform="translate(34,30)"/>
<path d="M0 0 C-0.556875 0.268125 -1.11375 0.53625 -1.6875 0.8125 C-2.8321875 1.4003125 -2.8321875 1.4003125 -4 2 C-4.845625 2.37125 -5.69125 2.7425 -6.5625 3.125 C-10.12929109 5.86868546 -10.67422668 8.74356987 -12 13 C-12.33 13 -12.66 13 -13 13 C-13.59865471 7.01345291 -13.59865471 7.01345291 -11.95703125 4.234375 C-7.84108817 -0.73855329 -6.17688281 -1.20852055 0 0 Z " fill="#BF8B3E" transform="translate(13,89)"/>
<path d="M0 0 C1.98 0 3.96 0 6 0 C6 0.99 6 1.98 6 3 C4.68 3.33 3.36 3.66 2 4 C2 4.99 2 5.98 2 7 C-0.31 6.34 -2.62 5.68 -5 5 C-4.67 4.34 -4.34 3.68 -4 3 C-3.01 3 -2.02 3 -1 3 C-0.67 2.01 -0.34 1.02 0 0 Z " fill="#E0A565" transform="translate(57,53)"/>
<path d="M0 0 C3.8063457 0.67170806 7.35206816 1.72746564 11 3 C10.67 4.98 10.34 6.96 10 9 C9.34 9 8.68 9 8 9 C7.67 8.01 7.34 7.02 7 6 C3.49705129 4.28432339 3.49705129 4.28432339 0 3 C0 2.01 0 1.02 0 0 Z " fill="#F1A94D" transform="translate(33,92)"/>
<path d="M0 0 C7.425 0.99 7.425 0.99 15 2 C15 2.33 15 2.66 15 3 C14.21625 3.144375 13.4325 3.28875 12.625 3.4375 C10.03578982 3.87798925 10.03578982 3.87798925 8 5 C5.8359375 4.66015625 5.8359375 4.66015625 3.375 4.0625 C2.14910156 3.77052734 2.14910156 3.77052734 0.8984375 3.47265625 C-0.04128906 3.23869141 -0.04128906 3.23869141 -1 3 C-0.67 2.01 -0.34 1.02 0 0 Z " fill="#985133" transform="translate(55,81)"/>
<path d="M0 0 C2.72869407 0.03287583 5.2966618 0.56397771 8 1 C7.67 1.99 7.34 2.98 7 4 C5.35 4.33 3.7 4.66 2 5 C2 4.34 2 3.68 2 3 C-1.27773504 3.75150023 -1.27773504 3.75150023 -3 7 C-2.25 2.25 -2.25 2.25 0 0 Z " fill="#F0B664" transform="translate(35,72)"/>
<path d="M0 0 C0.99 0.33 1.98 0.66 3 1 C3.80078125 2.77734375 3.80078125 2.77734375 4.3125 4.9375 C4.49425781 5.64777344 4.67601563 6.35804687 4.86328125 7.08984375 C4.90839844 7.72019531 4.95351562 8.35054687 5 9 C4.34 9.66 3.68 10.32 3 11 C2.34 8.69 1.68 6.38 1 4 C-0.65 4 -2.3 4 -4 4 C-4.66 5.32 -5.32 6.64 -6 8 C-5.67 6.02 -5.34 4.04 -5 2 C-3.35 2.33 -1.7 2.66 0 3 C0 2.01 0 1.02 0 0 Z " fill="#332E39" transform="translate(66,44)"/>
<path d="M0 0 C0.66 0.33 1.32 0.66 2 1 C2 1.33 2 1.66 2 2 C5.3 2.33 8.6 2.66 12 3 C8.89448334 6.10551666 7.10801767 6.81323934 3 8 C3 7.01 3 6.02 3 5 C1.0624994 2.81222534 1.0624994 2.81222534 -1 1 C-0.67 0.67 -0.34 0.34 0 0 Z " fill="#673D35" transform="translate(50,86)"/>
<path d="M0 0 C1.20220203 3.53094302 0.79532349 6.12898982 0.0625 9.75 C-0.13214844 10.73484375 -0.32679687 11.7196875 -0.52734375 12.734375 C-0.68332031 13.48203125 -0.83929687 14.2296875 -1 15 C-1.66 15 -2.32 15 -3 15 C-3.35050464 9.158256 -3.16727335 5.1468192 0 0 Z " fill="#6A5142" transform="translate(20,63)"/>
<path d="M0 0 C1.32 0.66 2.64 1.32 4 2 C4 2.99 4 3.98 4 5 C2 6.6875 2 6.6875 0 8 C-1.65 6.35 -3.3 4.7 -5 3 C-2.69 3.33 -0.38 3.66 2 4 C1.34 2.68 0.68 1.36 0 0 Z " fill="#916956" transform="translate(57,29)"/>
<path d="M0 0 C2 0 2 0 3.625 1.5 C4.07875 1.995 4.5325 2.49 5 3 C5 2.34 5 1.68 5 1 C5.66 1 6.32 1 7 1 C7.33 1.99 7.66 2.98 8 4 C5.69 4.66 3.38 5.32 1 6 C0.01 4.68 -0.98 3.36 -2 2 C-1.34 2 -0.68 2 0 2 C0 1.34 0 0.68 0 0 Z " fill="#F6B95C" transform="translate(56,23)"/>
<path d="M0 0 C1.32 0 2.64 0 4 0 C2.54144353 3.68646141 0.69770955 5.16143971 -2.625 7.25 C-3.44226562 7.77078125 -4.25953125 8.2915625 -5.1015625 8.828125 C-6.04128906 9.40820312 -6.04128906 9.40820312 -7 10 C-7.66 9.67 -8.32 9.34 -9 9 C-7.71283353 7.99421411 -6.42011342 6.99553202 -5.125 6 C-4.40570313 5.443125 -3.68640625 4.88625 -2.9453125 4.3125 C-1 3 -1 3 1 3 C0.67 2.01 0.34 1.02 0 0 Z " fill="#85503B" transform="translate(65,93)"/>
<path d="M0 0 C0.66 0.66 1.32 1.32 2 2 C1.34 3.98 0.68 5.96 0 8 C-2 6.625 -2 6.625 -4 5 C-4 4.34 -4 3.68 -4 3 C-5.65 3 -7.3 3 -9 3 C-9 2.34 -9 1.68 -9 1 C-6.69 1 -4.38 1 -2 1 C-1.67 1.66 -1.34 2.32 -1 3 C-0.67 2.01 -0.34 1.02 0 0 Z " fill="#AB6642" transform="translate(49,70)"/>
<path d="M0 0 C1.32 0 2.64 0 4 0 C7.125 6.625 7.125 6.625 6 10 C5.62875 9.38125 5.2575 8.7625 4.875 8.125 C2.51377094 5.4489404 0.39868348 4.9063156 -3 4 C-2.01 3.67 -1.02 3.34 0 3 C0.66 2.67 1.32 2.34 2 2 C1.34 1.34 0.68 0.68 0 0 Z " fill="#794C3C" transform="translate(57,56)"/>
<path d="M0 0 C0.28875 0.598125 0.5775 1.19625 0.875 1.8125 C2.04742026 4.19327792 2.04742026 4.19327792 4 7 C3.67 7.99 3.34 8.98 3 10 C1.02 8.35 -0.96 6.7 -3 5 C-2.67 3.68 -2.34 2.36 -2 1 C-1.67 1.99 -1.34 2.98 -1 4 C-0.67 2.68 -0.34 1.36 0 0 Z " fill="#BF8B41" transform="translate(77,91)"/>
<path d="M0 0 C2.31 0 4.62 0 7 0 C7.66 2.31 8.32 4.62 9 7 C7 7 7 7 5.0625 5.1875 C4.381875 4.465625 3.70125 3.74375 3 3 C2.4225 2.4225 1.845 1.845 1.25 1.25 C0.8375 0.8375 0.425 0.425 0 0 Z " fill="#D97237" transform="translate(64,84)"/>
<path d="M0 0 C0.66 0.33 1.32 0.66 2 1 C2.3125 3.8125 2.3125 3.8125 2 7 C-0.5 8.875 -0.5 8.875 -3 10 C-3 6.13304322 -1.58090029 3.4911548 0 0 Z " fill="#232535" transform="translate(33,57)"/>
<path d="M0 0 C0.66 0.66 1.32 1.32 2 2 C1.75 5.0625 1.75 5.0625 1 8 C0.01 8.495 0.01 8.495 -1 9 C-1 8.34 -1 7.68 -1 7 C-2.65 7 -4.3 7 -6 7 C-4 5 -4 5 -1 4 C-0.26676204 1.98491642 -0.26676204 1.98491642 0 0 Z " fill="#2C2A36" transform="translate(52,94)"/>
<path d="M0 0 C0.99 0.99 1.98 1.98 3 3 C2.34 5.31 1.68 7.62 1 10 C0.67 9.34 0.34 8.68 0 8 C-0.66 7.67 -1.32 7.34 -2 7 C-1.34 4.69 -0.68 2.38 0 0 Z " fill="#F5AD57" transform="translate(87,52)"/>
<path d="M0 0 C-2 1 -4 2 -6 3 C-6 3.99 -6 4.98 -6 6 C-6.99 6.33 -7.98 6.66 -9 7 C-9.33 5.35 -9.66 3.7 -10 2 C-6.5980513 -0.09350689 -3.94727588 -0.17942163 0 0 Z " fill="#CE905D" transform="translate(63,92)"/>
<path d="M0 0 C0.99 0 1.98 0 3 0 C3.33 1.32 3.66 2.64 4 4 C1 6 1 6 -2 6 C-1.34 4.02 -0.68 2.04 0 0 Z " fill="#EAA248" transform="translate(34,75)"/>
<path d="M0 0 C-0.7425 0.391875 -1.485 0.78375 -2.25 1.1875 C-5.19783071 3.13038842 -6.93098611 5.16468467 -9 8 C-9.33 7.01 -9.66 6.02 -10 5 C-6.9064303 0.51965767 -5.37804653 -1.61341396 0 0 Z " fill="#E2A445" transform="translate(52,1)"/>
<path d="M0 0 C2.97 0 5.94 0 9 0 C8.67 0.99 8.34 1.98 8 3 C6.88625 2.979375 5.7725 2.95875 4.625 2.9375 C1.16784079 2.73619282 1.16784079 2.73619282 -1 4 C-0.67 2.68 -0.34 1.36 0 0 Z " fill="#815B41" transform="translate(43,96)"/>
<path d="M0 0 C0.33 0.66 0.66 1.32 1 2 C1.99 2.33 2.98 2.66 4 3 C4 3.99 4 4.98 4 6 C0.7 6 -2.6 6 -6 6 C-6 5.67 -6 5.34 -6 5 C-4.02 5 -2.04 5 0 5 C0 3.35 0 1.7 0 0 Z " fill="#F6B553" transform="translate(21,81)"/>
<path d="M0 0 C0.66 0 1.32 0 2 0 C-0.18181818 9.45454545 -0.18181818 9.45454545 -4 12 C-3.67 10.68 -3.34 9.36 -3 8 C-2.34 8 -1.68 8 -1 8 C-1.020625 6.865625 -1.04125 5.73125 -1.0625 4.5625 C-1 1 -1 1 0 0 Z " fill="#9A684B" transform="translate(40,56)"/>
<path d="M0 0 C3.4375 0.8125 3.4375 0.8125 7 2 C7.33 2.99 7.66 3.98 8 5 C6.68 5.33 5.36 5.66 4 6 C2.68 4.02 1.36 2.04 0 0 Z " fill="#F4B24C" transform="translate(59,29)"/>
<path d="M0 0 C3.625 0.375 3.625 0.375 7 1 C7 1.66 7 2.32 7 3 C4.21176345 4.0326802 3.1322726 4.04509293 0.25 3.0625 C-0.4925 2.711875 -1.235 2.36125 -2 2 C-1.34 1.34 -0.68 0.68 0 0 Z " fill="#EFAA5C" transform="translate(37,27)"/>
<path d="M0 0 C1.5 1.375 1.5 1.375 3 3 C3 3.66 3 4.32 3 5 C-3.5 8.125 -3.5 8.125 -8 7 C-5.36 6.34 -2.72 5.68 0 5 C-0.33 3.68 -0.66 2.36 -1 1 C-0.67 0.67 -0.34 0.34 0 0 Z " fill="#B88563" transform="translate(44,25)"/>
<path d="M0 0 C2.64 0.33 5.28 0.66 8 1 C8.33 1.99 8.66 2.98 9 4 C6.69 3.67 4.38 3.34 2 3 C2 2.34 2 1.68 2 1 C1.34 0.67 0.68 0.34 0 0 Z " fill="#DA7735" transform="translate(60,87)"/>
<path d="M0 0 C0 0.99 0 1.98 0 3 C-4.75 4.125 -4.75 4.125 -7 3 C-7 2.34 -7 1.68 -7 1 C-4.53721199 -0.231394 -2.7204945 -0.07159196 0 0 Z " fill="#E8A15F" transform="translate(54,59)"/>
<path d="M0 0 C2.31 0 4.62 0 7 0 C6.34 0.66 5.68 1.32 5 2 C5.99 2.66 6.98 3.32 8 4 C6 5 6 5 2.875 4.0625 C1.92625 3.711875 0.9775 3.36125 0 3 C0 2.01 0 1.02 0 0 Z " fill="#BE7841" transform="translate(43,98)"/>
<path d="M0 0 C-0.25 1.875 -0.25 1.875 -1 4 C-3.0625 5.25 -3.0625 5.25 -5 6 C-5.33 4.35 -5.66 2.7 -6 1 C-3 0 -3 0 0 0 Z " fill="#FB8E2D" transform="translate(62,93)"/>
<path d="M0 0 C0.66 0.33 1.32 0.66 2 1 C1.60196439 3.88575819 1.20990931 4.82189513 -1.0625 6.75 C-1.701875 7.1625 -2.34125 7.575 -3 8 C-2.74438677 5.6568787 -2.40729228 3.32156597 -2 1 C-1.34 0.67 -0.68 0.34 0 0 Z " fill="#F1A147" transform="translate(79,80)"/>
<path d="M0 0 C0.33 0.99 0.66 1.98 1 3 C1.598125 2.649375 2.19625 2.29875 2.8125 1.9375 C5 1 5 1 8 2 C6.68 2.33 5.36 2.66 4 3 C3.67 4.65 3.34 6.3 3 8 C1.10786631 5.61426621 -0.02391783 3.92824652 -1 1 C-0.67 0.67 -0.34 0.34 0 0 Z " fill="#D46F32" transform="translate(73,78)"/>
<path d="M0 0 C0.66 0 1.32 0 2 0 C6 4.47058824 6 4.47058824 6 7 C4.68 7.33 3.36 7.66 2 8 C0 1.125 0 1.125 0 0 Z " fill="#42323A" transform="translate(43,73)"/>
<path d="M0 0 C0.66 0.66 1.32 1.32 2 2 C1.67 2.99 1.34 3.98 1 5 C-1 5 -3 5 -5 5 C-4.67 3.68 -4.34 2.36 -4 1 C-2.125 0.375 -2.125 0.375 0 0 Z " fill="#D48A45" transform="translate(43,74)"/>
<path d="M0 0 C0 0.66 0 1.32 0 2 C-2.64 2 -5.28 2 -8 2 C-8 1.34 -8 0.68 -8 0 C-5.13822943 -1.43088528 -3.06624227 -0.59991697 0 0 Z " fill="#EBB070" transform="translate(50,64)"/>
<path d="M0 0 C-3.96 1.98 -3.96 1.98 -8 4 C-8 3.01 -8 2.02 -8 1 C-4.59449725 -1.06762667 -4.18836538 -1.04709135 0 0 Z " fill="#CB7940" transform="translate(31,62)"/>
<path d="M0 0 C0.99 0.33 1.98 0.66 3 1 C2.34 3.31 1.68 5.62 1 8 C-0.32 6.35 -1.64 4.7 -3 3 C-2.01 2.01 -1.02 1.02 0 0 Z " fill="#925139" transform="translate(58,63)"/>
<path d="M0 0 C0.66 0.33 1.32 0.66 2 1 C2 2.65 2 4.3 2 6 C-0.475 5.01 -0.475 5.01 -3 4 C-3 3.34 -3 2.68 -3 2 C-2.01 1.34 -1.02 0.68 0 0 Z " fill="#AA643E" transform="translate(64,54)"/>
<path d="M0 0 C0.66 0 1.32 0 2 0 C2.33 1.32 2.66 2.64 3 4 C0 6 0 6 -2.1875 5.625 C-2.785625 5.41875 -3.38375 5.2125 -4 5 C-3.34 5 -2.68 5 -2 5 C-1.34 3.35 -0.68 1.7 0 0 Z " fill="#664941" transform="translate(66,41)"/>
<path d="M0 0 C0.66 0.33 1.32 0.66 2 1 C1.34 2.65 0.68 4.3 0 6 C-0.66 6 -1.32 6 -2 6 C-2.33 6.66 -2.66 7.32 -3 8 C-3.33 7.34 -3.66 6.68 -4 6 C-1.68421053 1.68421053 -1.68421053 1.68421053 0 0 Z " fill="#F7BD65" transform="translate(24,35)"/>
<path d="M0 0 C0.66 0.33 1.32 0.66 2 1 C1.67 1.99 1.34 2.98 1 4 C-1.5625 5.1875 -1.5625 5.1875 -4 6 C-4 4.68 -4 3.36 -4 2 C-2.125 0.9375 -2.125 0.9375 0 0 Z " fill="#6F463B" transform="translate(35,86)"/>
<path d="M0 0 C0.66 0.33 1.32 0.66 2 1 C1.855625 1.556875 1.71125 2.11375 1.5625 2.6875 C0.97230872 5.11384195 0.476571 7.54906345 0 10 C-0.66 10 -1.32 10 -2 10 C-1.85950482 8.52031676 -1.71245174 7.04125484 -1.5625 5.5625 C-1.48128906 4.73878906 -1.40007812 3.91507813 -1.31640625 3.06640625 C-1 1 -1 1 0 0 Z " fill="#E28E3E" transform="translate(70,56)"/>
<path d="M0 0 C2.64 0.66 5.28 1.32 8 2 C8 2.66 8 3.32 8 4 C2.25 4.125 2.25 4.125 0 3 C0 2.01 0 1.02 0 0 Z " fill="#1D2235" transform="translate(35,32)"/>
<path d="M0 0 C3.16115776 1.36983503 3.9927092 1.9890638 6 5 C3.525 4.01 3.525 4.01 1 3 C0.34 4.32 -0.32 5.64 -1 7 C-1.04254356 5.00045254 -1.04080783 2.99958364 -1 1 C-0.67 0.67 -0.34 0.34 0 0 Z " fill="#AA8157" transform="translate(51,24)"/>
<path d="M0 0 C2.6875 0.3125 2.6875 0.3125 5 1 C3.25 2.5625 3.25 2.5625 1 4 C-1.25 3.6875 -1.25 3.6875 -3 3 C-1.8125 1.4375 -1.8125 1.4375 0 0 Z " fill="#CF7B35" transform="translate(54,85)"/>
<path d="M0 0 C2.31 0.33 4.62 0.66 7 1 C6.67 1.99 6.34 2.98 6 4 C4.68 4 3.36 4 2 4 C1.34 2.68 0.68 1.36 0 0 Z " fill="#3C2E39" transform="translate(35,85)"/>
<path d="M0 0 C0.99 0.33 1.98 0.66 3 1 C2.01 2.485 2.01 2.485 1 4 C-0.32 4 -1.64 4 -3 4 C-3.33 4.66 -3.66 5.32 -4 6 C-4 5.01 -4 4.02 -4 3 C-2.1875 1.25 -2.1875 1.25 0 0 Z " fill="#EE9939" transform="translate(28,75)"/>
<path d="M0 0 C1.65 0 3.3 0 5 0 C5 0.66 5 1.32 5 2 C3.68 2 2.36 2 1 2 C1 2.66 1 3.32 1 4 C0.01 4 -0.98 4 -2 4 C-1.34 2.68 -0.68 1.36 0 0 Z " fill="#D38850" transform="translate(39,67)"/>
<path d="M0 0 C1.98 0.495 1.98 0.495 4 1 C4 2.32 4 3.64 4 5 C2.35 4.67 0.7 4.34 -1 4 C-0.67 2.68 -0.34 1.36 0 0 Z " fill="#C9874B" transform="translate(62,48)"/>
<path d="M0 0 C0.66 0 1.32 0 2 0 C2 0.99 2 1.98 2 3 C1.34 3 0.68 3 0 3 C0.33 4.98 0.66 6.96 1 9 C0.34 8.67 -0.32 8.34 -1 8 C-1.04241723 5.66705225 -1.04092937 3.33297433 -1 1 C-0.67 0.67 -0.34 0.34 0 0 Z " fill="#EA9D4B" transform="translate(61,36)"/>
<path d="M0 0 C0.99 0.33 1.98 0.66 3 1 C3 2.32 3 3.64 3 5 C3.66 5.33 4.32 5.66 5 6 C4.34 6.66 3.68 7.32 3 8 C3 7.34 3 6.68 3 6 C2.34 5.67 1.68 5.34 1 5 C0.375 2.4375 0.375 2.4375 0 0 Z " fill="#F8B853" transform="translate(71,30)"/>
<path d="M0 0 C0.66 0 1.32 0 2 0 C2 1.98 2 3.96 2 6 C1.34 6 0.68 6 0 6 C0 4.02 0 2.04 0 0 Z " fill="#F19E49" transform="translate(88,63)"/>
<path d="M0 0 C0.66 1.32 1.32 2.64 2 4 C1.34 4 0.68 4 0 4 C0 2.68 0 1.36 0 0 Z " fill="#F8B857" transform="translate(72,26)"/>
<path d="M0 0 C0.66 0 1.32 0 2 0 C2 0.66 2 1.32 2 2 C1.34 2 0.68 2 0 2 C0 1.34 0 0.68 0 0 Z " fill="#F9BC5E" transform="translate(16,37)"/>
<path d="M0 0 C0.99 0.495 0.99 0.495 2 1 C1.01 1.495 1.01 1.495 0 2 C0 1.34 0 0.68 0 0 Z " fill="#F6B563" transform="translate(89,60)"/>
<path d="M0 0 C0.33 0.66 0.66 1.32 1 2 C0.34 1.67 -0.32 1.34 -1 1 C-0.67 0.67 -0.34 0.34 0 0 Z " fill="#FABF6A" transform="translate(8,54)"/>
<path d="" fill="#F9BA5C" transform="translate(0,0)"/>
<path d="" fill="#FAB958" transform="translate(0,0)"/>
<path d="" fill="#FBBE67" transform="translate(0,0)"/>
</svg>
